<svg xmlns="http://www.w3.org/2000/svg" width="715.772" height="622.334" viewBox="0 0 715.772 622.334">
  <g id="Group_15927" data-name="Group 15927" transform="translate(-91.852 -66.551)">
    <path id="Path_10383" data-name="Path 10383" d="M597.556,348.975H321.049L264.81,599.287H541.317Z" transform="translate(54.87 89.598)" fill="#3b2d51"/>
    <g id="Group_15913" data-name="Group 15913" transform="translate(331.149 66.551)">
      <g id="Group_15905" data-name="Group 15905" transform="translate(11.425 105.874)">
        <path id="Path_10384" data-name="Path 10384" d="M334.43,149.546H293.194l-11,182.84h46.672Z" transform="translate(-282.19 -146.095)" fill="#732c84"/>
        <path id="Path_10385" data-name="Path 10385" d="M338.365,149.546H296.472L285.6,332.386h47.415Z" transform="translate(-281.109 -146.095)" fill="#ab56bf"/>
        <path id="Path_10386" data-name="Path 10386" d="M344.724,152.977H302.831L285.493,330.722l44.283.226Z" transform="translate(-281.142 -145.007)" fill="#732c84"/>
        <path id="Path_10387" data-name="Path 10387" d="M333.644,151.384c-10.086,3.965-20.686,4.353-31.7,1.885L289.619,329.393c13.507-2.447,26.469-2.479,35.846.391Z" transform="translate(-279.833 -145.512)" fill="#ddcba6"/>
        <path id="Path_10388" data-name="Path 10388" d="M433.337,146.971H323.775L309.53,333.2H421.356Z" transform="translate(-273.516 -146.912)" fill="#732c84"/>
        <path id="Path_10389" data-name="Path 10389" d="M437.112,146.971H327.55L313.3,333.2H425.131Z" transform="translate(-272.319 -146.912)" fill="#bf63d6"/>
        <path id="Path_10390" data-name="Path 10390" d="M313.349,154.3a62.188,62.188,0,0,1-11.4-1.488L289.619,328.939a109.914,109.914,0,0,1,16.026-1.732Z" transform="translate(-279.833 -145.058)" fill="#efe3ca"/>
        <g id="Group_15903" data-name="Group 15903" transform="translate(46.541 7.249)" opacity="0.45" style="mix-blend-mode: overlay;isolation: isolate">
          <path id="Path_10391" data-name="Path 10391" d="M419.375,324.282H317.522L330.4,152.429h99.806Zm-99.946-1.77h98.285L428.323,154.2h-96.28Z" transform="translate(-317.522 -152.429)" fill="#fff"/>
        </g>
        <g id="Group_15904" data-name="Group 15904" transform="translate(52.543 13.555)" opacity="0.45" style="mix-blend-mode: overlay;isolation: isolate">
          <path id="Path_10392" data-name="Path 10392" d="M413.083,316.455h-91l11.509-159.238h89.175Zm-89.3-1.64H411.6l9.479-155.958H335.053Z" transform="translate(-322.078 -157.217)" fill="#fff"/>
        </g>
        <path id="Path_10393" data-name="Path 10393" d="M387.5,146.926l-25.907,73.2-26.407-14.206-14.562,29.418-7.23,97.753H422.141l14.911-67.328-24.4-118.84Z" transform="translate(-272.291 -146.926)" fill="#c94343" opacity="0.6" style="mix-blend-mode: multiply;isolation: isolate"/>
      </g>
      <path id="Path_10394" data-name="Path 10394" d="M394.908,89.354c-14.606-5.2-10.6-19.607-5-22.007s19.606.2,16.605,13.8S394.908,89.354,394.908,89.354Z" transform="translate(-238.204 -66.551)" fill="#964532"/>
      <path id="Path_10395" data-name="Path 10395" d="M396.488,79.819c-6.354-2.264-9.184-6.269-9.9-10.271-3.148,5.2-3.043,14.811,8.314,18.855,0,0,8.6,5.4,11.6-8.2a15.591,15.591,0,0,0,.366-4.674C403.252,84.055,396.488,79.819,396.488,79.819Z" transform="translate(-238.204 -65.6)" fill="#7f3425"/>
      <path id="Path_10396" data-name="Path 10396" d="M397.4,88.015c-11.475-3.007-8.332-11.336-3.929-12.725s15.4.116,13.046,7.983S397.4,88.015,397.4,88.015Z" transform="translate(-236.727 -63.924)" fill="#ffb94a"/>
      <path id="Path_10397" data-name="Path 10397" d="M401.7,147.292c-20.208-14.405-20.008-49.017-11-62.223s33.412-13.2,43.816-1.2,11.471,31.278,2.469,41.481S401.7,147.292,401.7,147.292Z" transform="translate(-238.194 -63.867)" fill="#964532"/>
      <path id="Path_10398" data-name="Path 10398" d="M428.5,112.8c-.452-21.538-3.464-27.112-12.652-32.533,0,0,10.845,9.038,5.723,21.69Z" transform="translate(-228.363 -62.201)" fill="#7f3425"/>
      <path id="Path_10399" data-name="Path 10399" d="M425.56,112.366c-6.214-22.969-10.653-28.312-21.093-32.208,0,0,13.029,7.424,11.41,22.035Z" transform="translate(-231.973 -62.234)" fill="#7f3425"/>
      <path id="Path_10400" data-name="Path 10400" d="M412.573,106.892c-11.057-9.342-15.955-21.2-8.949-29.491a14.91,14.91,0,0,1,1.83-1.786c-6.028,1.34-11.442,4.4-14.758,9.263-9,13.205-9.2,47.817,11,62.223,0,0,26.276-11.738,35.28-21.941a25.186,25.186,0,0,0,5.688-12.9C435.344,119.406,423.137,115.816,412.573,106.892Z" transform="translate(-238.194 -63.675)" fill="#7f3425"/>
      <path id="Path_10401" data-name="Path 10401" d="M454.8,215.418c-1.5-33.084-35.348-70.454-38.817-70.72s-2.852,13.834,5.684,27.706,17.926,46.75,18.993,50.217S455.062,221.288,454.8,215.418Z" transform="translate(-228.948 -41.76)" fill="#db2828"/>
      <path id="Path_10402" data-name="Path 10402" d="M416.314,142.289c-1.6-.122-2.415,3.5-1.989,8.8,6.657,5.146,34.072,40.222,37.028,70.374,2-1.458,3.466-3.3,3.376-5.276C453.225,183.1,419.782,142.556,416.314,142.289Z" transform="translate(-228.881 -42.524)" fill="#ed4848"/>
      <path id="Path_10403" data-name="Path 10403" d="M356.989,217.926c1.5-33.084,35.346-74.56,38.814-74.827s2.267,23.609-6.269,37.481-17.34,41.081-18.407,44.549S356.722,223.8,356.989,217.926Z" transform="translate(-247.036 -42.267)" fill="#ed4848"/>
      <path id="Path_10404" data-name="Path 10404" d="M386.879,172.217c-10.455,15.208-14.083,38.257-29.672,37.58-.95-.041,6.752,12.988,5.037,12.786,3.759,2,8.238,2.663,8.839.714,1.067-3.468,12.984-32.238,21.52-46.11,4.8-7.8-.033-20.262.6-28.317C390.936,156.439,391.477,165.528,386.879,172.217Z" transform="translate(-246.992 -40.436)" fill="#db2828"/>
      <path id="Path_10405" data-name="Path 10405" d="M378.688,199.9c-6.477-5.272-19.281-7.079-22.593-4.97s-1.959,17.472,7.531,20.183S378.688,199.9,378.688,199.9Z" transform="translate(-247.837 -26.096)" fill="#ffe9ca"/>
      <path id="Path_10406" data-name="Path 10406" d="M422.031,169.94l-35.78-17.577c16.607,77.229-1.214,67.677,2.935,97.655,20.312,8.372,39.853,5.125,58.687-8.756C429.035,237.286,422.031,169.94,422.031,169.94Z" transform="translate(-237.752 -39.327)" fill="#ed4848"/>
      <path id="Path_10407" data-name="Path 10407" d="M402.1,249.767c-4.55-19.012,2.256-36.934,15.2-40.031a18.413,18.413,0,0,1,12.46,1.64c-5.447-19.556-7.728-41.435-7.728-41.435l-35.78-17.577c16.607,77.229-1.214,67.677,2.935,97.655a60.471,60.471,0,0,0,14.127,3.956C402.861,252.605,402.444,251.21,402.1,249.767Z" transform="translate(-237.752 -39.327)" fill="#db2828"/>
      <path id="Path_10408" data-name="Path 10408" d="M433.67,236.273,330.1,192.494c23.95,37.25,58.308,72.518,69.906,75.738s52.011,4.884,60.019,1.7,70.135-69.515,70.135-69.515S449.275,235.9,433.67,236.273Z" transform="translate(-255.565 -26.596)" fill="#6d2d4a"/>
      <path id="Path_10409" data-name="Path 10409" d="M458.993,211.932l-37.429,22.819,12.577-13.33Z" transform="translate(-226.549 -20.429)" fill="#934769"/>
      <path id="Path_10410" data-name="Path 10410" d="M386.093,145.951c-6.74,11.957.054,55.7,3.107,58.624s48-2.143,50.234-4.1-8.854-53.309-12.453-55.992-15.1-7.321-17.758-7.565S386.819,144.662,386.093,145.951Z" transform="translate(-238.716 -44.228)" fill="#ed4848"/>
      <path id="Path_10411" data-name="Path 10411" d="M392.162,196.789c-2.324-2.359-7.918-28.292-8.231-47.513-2.624,16.867,2.471,49.993,5.069,52.484,3.053,2.928,48.206-3.25,50.439-5.2.29-.254.35-1.359.236-3.07C430.214,195.953,394.993,199.662,392.162,196.789Z" transform="translate(-238.719 -40.307)" fill="#db2828"/>
      <path id="Path_10412" data-name="Path 10412" d="M416.791,191.521c-.055,3.728-2.146,4.745-2.6,7.23s-1.751-1.074-1.187-3.107S416.791,191.521,416.791,191.521Z" transform="translate(-229.308 -26.905)" fill="#ff9566"/>
      <path id="Path_10413" data-name="Path 10413" d="M410.87,194.595c3.532,2.471,5.083,1.581,5.817.734a14.207,14.207,0,0,0,1.582-3.106l-4.011-1.13.113,2.542S408.611,193.013,410.87,194.595Z" transform="translate(-230.108 -27.041)" fill="#ffb882"/>
      <path id="Path_10414" data-name="Path 10414" d="M408.9,195.451c3.531,2.472,5.083,1.582,5.818.735a14.245,14.245,0,0,0,1.581-3.107l-4.01-1.129.113,2.541S406.638,193.871,408.9,195.451Z" transform="translate(-230.734 -26.769)" fill="#ffb882"/>
      <path id="Path_10415" data-name="Path 10415" d="M363.893,201.577c15.225-5.9,61.24-11.285,61.24-11.285l.366,1.172s-44.777,25.937-59,23.215C352.231,211.948,357.738,203.96,363.893,201.577Z" transform="translate(-246.873 -27.295)" fill="#ffb882"/>
      <path id="Path_10416" data-name="Path 10416" d="M371.741,206.7c-5.347-1.243-7.986-3.019-8.885-4.872-5.677,2.814-9.816,10.066,3.646,12.643,14.22,2.721,59-23.215,59-23.215l-.1-.316C411.308,197.3,382.67,209.241,371.741,206.7Z" transform="translate(-246.873 -27.088)" fill="#ff9566"/>
      <path id="Path_10417" data-name="Path 10417" d="M419.357,191.17c-2.787-2.411-8.886-1.959-13.857.15l-1.431,2.937c4.141-.9,10.242.9,12.125,1.355S422.143,193.579,419.357,191.17Z" transform="translate(-232.099 -27.532)" fill="#ffb882"/>
      <path id="Path_10418" data-name="Path 10418" d="M415.76,190.578c3.222,2.67,7.979,8.866,7.917,9.961-.061,1.071-3.749-2.437-4.717-3.717a34.346,34.346,0,0,0-4.65-3.939Z" transform="translate(-228.85 -27.204)" fill="#ffb882"/>
      <path id="Path_10419" data-name="Path 10419" d="M453.306,151.5l-35.213,77.628L382.614,231l-2.134,1.867,110.707-1.6,37.88-79.762Z" transform="translate(-239.583 -39.6)" fill="#eaddbe"/>
      <path id="Path_10420" data-name="Path 10420" d="M435.766,151.5c31.538,13.533,44.49,39.9,37.881,79.762l37.88-79.762Z" transform="translate(-222.043 -39.6)" fill="#f4e9d3"/>
      <path id="Path_10421" data-name="Path 10421" d="M420.733,232.284,457.1,151.5h-3.8l-35.213,77.628L382.614,231l-2.134,1.867Z" transform="translate(-239.583 -39.6)" fill="#d8c091"/>
      <path id="Path_10422" data-name="Path 10422" d="M505.231,181.131c-14.005,3.2-45.618,38.415-82.831,91.234l.8,2s64.6-49.78,72.2-58.984S519.236,177.93,505.231,181.131Z" transform="translate(-226.284 -30.281)" fill="#934769"/>
      <path id="Path_10423" data-name="Path 10423" d="M496.7,206.854c-5.8,6.3-42,31.834-62.012,45.782q-6.024,8.192-12.29,17.077l.8,2s64.977-48.8,72.579-58c4.086-4.945,10.28-16.364,13.317-24.473A102.839,102.839,0,0,1,496.7,206.854Z" transform="translate(-226.284 -27.63)" fill="#7c3552"/>
      <path id="Path_10424" data-name="Path 10424" d="M426.735,263.119l33.781-25.389s16.683-31.279,34.047-52.994C479.225,195.734,454.811,224.028,426.735,263.119Z" transform="translate(-224.908 -29.057)" fill="#7c3552"/>
      <path id="Path_10425" data-name="Path 10425" d="M331.782,190.358c-8.4,6,9.6,18.407,26.409,35.613s47.617,22.409,96.035,45.618l2-1.2C398.606,215.968,340.184,184.356,331.782,190.358Z" transform="translate(-255.709 -27.504)" fill="#934769"/>
      <path id="Path_10426" data-name="Path 10426" d="M436.144,251.678c-40.479-17.027-66.908-22.34-82.247-37.491-8.985-8.874-18.27-16.417-23.87-22.472-3.011,6.544,12.653,19.523,27.764,34.991,16.805,17.206,48.018,21.014,96.436,44.223l2-1.2C449.515,263.388,442.8,257.373,436.144,251.678Z" transform="translate(-255.708 -26.843)" fill="#7c3552"/>
      <path id="Path_10427" data-name="Path 10427" d="M427.221,259.242l5.845-9.37a102.651,102.651,0,0,0-18.763-14.1Z" transform="translate(-228.852 -12.866)" fill="#dbc7a1"/>
      <path id="Path_10428" data-name="Path 10428" d="M426.455,257.382l-7.366-2.563s5.866-10.344,21.711-17.846Z" transform="translate(-227.334 -12.485)" fill="#eaddbe"/>
      <path id="Path_10429" data-name="Path 10429" d="M422.311,142.511c-5-2.677-12.4-6.6-14.405-6.8-2.11-.211-15.063,5.967-20.541,8.938C397.776,180.916,415.908,196,415.908,196S423.978,143.4,422.311,142.511Z" transform="translate(-237.398 -44.613)" fill="#ffe9ca"/>
      <path id="Path_10430" data-name="Path 10430" d="M422.311,141.031l-1.24-.663c-.857,12.5-6.519,49.4-6.519,49.4S398,175.989,387.447,143.12l-.082.045c10.411,36.272,28.932,53.288,28.932,53.288S423.978,141.922,422.311,141.031Z" transform="translate(-237.398 -43.133)" fill="#db2828"/>
      <path id="Path_10431" data-name="Path 10431" d="M393.7,148.816c-.2-23.809,3.4-37.614,3.4-37.614l14.205,12.8-.8,21.408s-3.4,7.2-7.8,7.8S393.7,148.816,393.7,148.816Z" transform="translate(-235.392 -52.386)" fill="#ffb882"/>
      <g id="Group_15907" data-name="Group 15907" transform="translate(73.425 242.083)">
        <path id="Path_10432" data-name="Path 10432" d="M525.725,252.043h-88.5c-15.659,0-20.162,45.578-4.5,45.578h88.5C513.228,291.487,514.333,259.275,525.725,252.043Z" transform="translate(-299.521 -249.788)" fill="#e0d0b1"/>
        <path id="Path_10433" data-name="Path 10433" d="M472.412,250.339H349.046c-24.507-.732-27.21,49.341-2.7,50.074H469.709C448.7,299.786,451.4,249.712,472.412,250.339Z" transform="translate(-329.258 -250.331)" fill="#ff9a3e"/>
        <path id="Path_10434" data-name="Path 10434" d="M468.615,293.708c-8.969-1.052-13.273-11.5-13.371-22.6H329.274c.245,11.519,5.747,22.379,17.064,22.717H468.615Z" transform="translate(-329.253 -243.74)" fill="#ed8129"/>
        <path id="Path_10435" data-name="Path 10435" d="M525.582,250.337h-98.24l-.887,4.745H524.7a2.993,2.993,0,0,0,2.816-2.372h0A1.914,1.914,0,0,0,525.582,250.337Z" transform="translate(-298.422 -250.329)" fill="#ffb94a"/>
        <path id="Path_10436" data-name="Path 10436" d="M523.893,285.223H426.024l-.948,4.122h97.869a2.964,2.964,0,0,0,2.847-2.06h0C526.053,286.145,525.2,285.223,523.893,285.223Z" transform="translate(-298.86 -239.262)" fill="#ffb94a"/>
        <path id="Path_10437" data-name="Path 10437" d="M517.447,258.985H441.071c-15.661,0-17.451,30.6-1.791,30.6H515.99C513.411,281.6,513.826,268.3,517.447,258.985Z" transform="translate(-297.808 -247.585)" fill="#f4e9d4"/>
        <path id="Path_10438" data-name="Path 10438" d="M443.737,250.338H429.07c-11.525,9.446-12.864,40.6-1.889,50.074h13.853C420.024,299.785,422.727,249.711,443.737,250.338Z" transform="translate(-300.583 -250.33)" fill="#ffb94a"/>
        <g id="Group_15906" data-name="Group 15906" transform="translate(6.671 1.756)" opacity="0.39" style="mix-blend-mode: overlay;isolation: isolate">
          <path id="Path_10439" data-name="Path 10439" d="M446.242,298.234H352.3a16.994,16.994,0,0,1-15-9.239c-4.364-8.046-3.9-19.813,1.114-27.978,3.809-6.208,9.687-9.532,16.612-9.343h92.887l-2.052,1.585c-5.651,4.363-9.218,13.125-9.312,22.866-.084,8.906,2.8,16.584,7.726,20.537Zm-91.726-44.8c-6.055,0-11.214,3.007-14.587,8.507-4.7,7.66-5.148,18.682-1.066,26.208a15.114,15.114,0,0,0,13.464,8.313l89.145,0c-4.3-4.556-6.765-11.967-6.685-20.361.088-9.217,3.181-17.643,8.2-22.663H355.008C354.843,253.436,354.679,253.434,354.515,253.434Z" transform="translate(-334.322 -251.664)" fill="#fff"/>
        </g>
      </g>
      <g id="Group_15909" data-name="Group 15909" transform="translate(0 284.262)">
        <path id="Path_10440" data-name="Path 10440" d="M574.7,285.644H437.716c-24.241,0-25.522,87.61-1.282,87.61h136.98C560.275,361.46,557.967,299.544,574.7,285.644Z" transform="translate(-227.4 -281.307)" fill="#e0d0b1"/>
        <path id="Path_10441" data-name="Path 10441" d="M491.982,282.367H301.024c-38.025-1.407-35.961,94.844,2.064,96.251H494.047C461.446,377.413,459.382,281.161,491.982,282.367Z" transform="translate(-273.516 -282.351)" fill="#5e85bc"/>
        <path id="Path_10442" data-name="Path 10442" d="M492.268,365.729c-14.016-2.023-21.981-22.113-23.517-43.445H273.763c1.818,22.142,11.689,43.016,29.247,43.665H492.282Z" transform="translate(-273.438 -269.683)" fill="#4e75a5"/>
        <path id="Path_10443" data-name="Path 10443" d="M574.891,282.363H422.827l-.78,9.122H574.111c2.029,0,3.848-2.042,4.064-4.56h0C578.39,284.406,576.92,282.363,574.891,282.363Z" transform="translate(-226.395 -282.348)" fill="#749dce"/>
        <path id="Path_10444" data-name="Path 10444" d="M576.648,349.42H425.16l-.954,7.922H575.695a4.439,4.439,0,0,0,4.149-3.961h0A3.324,3.324,0,0,0,576.648,349.42Z" transform="translate(-225.711 -261.074)" fill="#749dce"/>
        <path id="Path_10445" data-name="Path 10445" d="M563.049,298.986H444.827c-24.24,0-23.194,58.815,1.046,58.815h118.74C559.623,342.449,558.606,316.9,563.049,298.986Z" transform="translate(-224.773 -277.074)" fill="#f4e9d4"/>
        <path id="Path_10446" data-name="Path 10446" d="M447.6,282.366h-22.7c-16.662,18.157-14.848,78.038,3.323,96.252h21.443C417.061,377.412,415,281.16,447.6,282.366Z" transform="translate(-229.131 -282.35)" fill="#749dce"/>
        <g id="Group_15908" data-name="Group 15908" transform="translate(10.34 3.375)" opacity="0.39" style="mix-blend-mode: overlay;isolation: isolate">
          <path id="Path_10447" data-name="Path 10447" d="M457.5,374.431l-145.408,0c-10.147-.335-18.788-6.64-24.365-17.76-7.759-15.464-8.5-38.082-1.766-53.778,5.121-11.934,13.8-18.323,24.547-17.961H454.285l-2.98,3.047c-8.2,8.386-12.63,25.228-11.559,43.953.98,17.119,6.408,31.879,14.519,39.477ZM309.928,288.318c-9.374,0-16.982,5.78-21.52,16.351-6.318,14.724-5.636,35.913,1.622,50.378,3.549,7.079,10.227,15.594,21.877,15.979l137.987,0c-7.221-8.757-11.965-23-12.889-39.134-1.013-17.718,2.724-33.916,9.869-43.564H310.69C310.436,288.32,310.181,288.318,309.928,288.318Z" transform="translate(-281.366 -284.914)" fill="#fff"/>
        </g>
      </g>
      <path id="Path_10448" data-name="Path 10448" d="M414.519,179.242c9.356-5.519,14.158-16.716,13.482-28.673-.582-.353-1.221-.718-1.952-1.1-.012-.071-.018-.169-.033-.223-.034-.128-.076-.208-.129-.236-2.966-1.587-6.771-3.609-9.8-5.037l.724-19.374a33.336,33.336,0,0,0-15.2-9.388,183.765,183.765,0,0,0-2.334,31.751c-3.146,1.488-6.2,3.028-8.255,4.137l-.082.045c.013.046.028.091.041.137-.551.267-1.033.512-1.429.728-1.578.524-7.08,6.444-13.456,15.335C385.632,181.253,401.977,186.637,414.519,179.242Z" transform="translate(-240.973 -51.113)" fill="#c94343" opacity="0.6" style="mix-blend-mode: multiply;isolation: isolate"/>
      <path id="Path_10449" data-name="Path 10449" d="M394.9,110.908c-7.661,32.983,19,45.86,19,45.86s21.029-20.234,23.539-45.552c1.357-13.688-.623-17.861-14.272-20.008C409.547,89.065,396.889,102.329,394.9,110.908Z" transform="translate(-235.448 -58.802)" fill="#ffb882"/>
      <path id="Path_10450" data-name="Path 10450" d="M397.581,128.956c7.013-20.415,8.557-37.586.209-36.685S385.777,122.472,397.581,128.956Z" transform="translate(-236.543 -58.402)" fill="#7f3425"/>
      <path id="Path_10451" data-name="Path 10451" d="M399,126.956c1.752-17.464.233-19.6-5.255-19.638C387.454,107.28,386.931,124.072,399,126.956Z" transform="translate(-236.762 -53.618)" fill="#ffb882"/>
      <path id="Path_10452" data-name="Path 10452" d="M396.7,122.011c1.051-10.466.141-11.747-3.148-11.768C389.783,110.221,389.47,120.283,396.7,122.011Z" transform="translate(-236.267 -52.69)" fill="#db5b3e"/>
      <path id="Path_10453" data-name="Path 10453" d="M396.672,121.921c.029-6.732-.711-7.492-3.07-7.3C390.9,114.838,391.366,121.268,396.672,121.921Z" transform="translate(-235.933 -51.309)" fill="#ffb882"/>
      <g id="Group_15912" data-name="Group 15912" transform="translate(168.287 46.546)">
        <path id="Path_10454" data-name="Path 10454" d="M422.736,116.539c.47-2.744-.52-5.154-2.225-5.385s-3.467,1.823-3.942,4.577.522,5.158,2.22,5.381S422.259,119.292,422.736,116.539Z" transform="translate(-396.458 -98.952)" fill="#66423b"/>
        <path id="Path_10455" data-name="Path 10455" d="M410.183,115.064c.645-3.159-.292-5.988-2.118-6.349s-3.806,1.917-4.452,5.074.3,6,2.116,6.345S409.535,118.213,410.183,115.064Z" transform="translate(-400.595 -99.732)" fill="#66423b"/>
        <path id="Path_10456" data-name="Path 10456" d="M401.461,112.585s6.5-3.379,11.406-1.737c0,0-.777-2.72-4.666-2.615S401.461,112.585,401.461,112.585Z" transform="translate(-401.213 -99.875)" fill="#66423b"/>
        <path id="Path_10457" data-name="Path 10457" d="M425.453,114.9s-4.61-3.979-9.348-3.377a4.537,4.537,0,0,1,4.824-1.5C424.253,110.745,425.453,114.9,425.453,114.9Z" transform="translate(-396.568 -99.352)" fill="#66423b"/>
        <g id="Group_15910" data-name="Group 15910">
          <path id="Path_10458" data-name="Path 10458" d="M401.332,108.588l-.059-.7a15.376,15.376,0,0,1,10.718-6l-.173,2.417C409.543,103.909,404.11,105.426,401.332,108.588Z" transform="translate(-401.273 -101.887)" fill="#7c4343"/>
        </g>
        <g id="Group_15911" data-name="Group 15911" transform="translate(21.529 1.217)">
          <path id="Path_10459" data-name="Path 10459" d="M426.7,111.22c-2.247-4.423-7.693-6.038-9.084-6.066l.57-2.343c1.554.1,6.539,2.127,9.043,7.636Z" transform="translate(-417.617 -102.811)" fill="#7c4343"/>
        </g>
        <path id="Path_10460" data-name="Path 10460" d="M416.006,121.486c-.037.09-.034.175-.078.259a3.393,3.393,0,0,1-4.614,1.421,3.5,3.5,0,0,1-1.79-2.508,3.466,3.466,0,0,0,1.608,4.384,3.3,3.3,0,0,0,4.874-3.557Z" transform="translate(-398.737 -95.932)" fill="#ea7b59"/>
        <path id="Path_10461" data-name="Path 10461" d="M405.061,127.267l11.635,1.872s-2.513,5.609-7.23,4.718C404.946,133,405.061,127.267,405.061,127.267Z" transform="translate(-400.071 -93.835)" fill="#491d2e"/>
        <path id="Path_10462" data-name="Path 10462" d="M405.67,127.542l9.879,1.59s.162,2.686-5.474,1.881C404.139,130.165,405.67,127.542,405.67,127.542Z" transform="translate(-399.934 -93.748)" fill="#ffebeb"/>
        <path id="Path_10463" data-name="Path 10463" d="M411.133,134.247c.179-.717-1.009-.167-2.255-.374s-2.075-1.091-2.255-.374.685,1.465,1.93,1.672S410.954,134.963,411.133,134.247Z" transform="translate(-399.583 -91.946)" fill="#ef8f6f"/>
      </g>
    </g>
    <g id="Group_15917" data-name="Group 15917" transform="translate(426.811 280.592)">
      <path id="Path_10464" data-name="Path 10464" d="M529.959,318.306h-138.9L382.131,452.3l91.225,125.267Z" transform="translate(-334.721 -200.723)" fill="#8b54b2"/>
      <path id="Path_10465" data-name="Path 10465" d="M532.64,322.059h-138.9l-8.93,133.991,91.225,125.267Z" transform="translate(-333.87 -199.533)" fill="#634c84"/>
      <path id="Path_10466" data-name="Path 10466" d="M541.732,326.93h-138.9l-50.512,234.2,132.807,25.053Z" transform="translate(-344.178 -197.987)" fill="#e2d5af"/>
      <path id="Path_10467" data-name="Path 10467" d="M402.113,337.421c24.721-.661,45.5-2.412,45.5-8.062a3.189,3.189,0,0,0-.116-.69H394.145Z" transform="translate(-330.909 -197.436)" fill="#f7f0da"/>
      <path id="Path_10468" data-name="Path 10468" d="M391.614,325.963c16.958,2.666,25.316,11.373,22.911,22.334C411.462,362.248,391.614,325.963,391.614,325.963Z" transform="translate(-331.712 -198.294)" fill="#3b2d51"/>
      <path id="Path_10469" data-name="Path 10469" d="M555.644,341.483h-138.9l-56.6,259.258h138.9Z" transform="translate(-341.697 -193.37)" fill="#634c84"/>
      <path id="Path_10470" data-name="Path 10470" d="M576.153,341.483h-138.9l-56.6,259.258h138.9Z" transform="translate(-335.19 -193.37)" fill="#4c396b"/>
      <path id="Path_10471" data-name="Path 10471" d="M420.512,355.152,370.845,582.638H492.721l49.667-227.486Zm70.2,223.733H375.624l46.9-219.98H537.608Z" transform="translate(-338.301 -189.034)" fill="#eaddbe" style="mix-blend-mode: overlay;isolation: isolate"/>
      <path id="Path_10472" data-name="Path 10472" d="M409.175,318.39l3.735,4.481-.939,6.5,16.236,19.479h21.229l5.032-30.459Z" transform="translate(-326.141 -200.697)" fill="#c94343" opacity="0.6" style="mix-blend-mode: multiply;isolation: isolate"/>
      <path id="Path_10473" data-name="Path 10473" d="M622.911,293.146H477.883a8.512,8.512,0,0,0-8.5,8l-18.461,306.83A8.51,8.51,0,0,0,459.421,617H615.267a8.51,8.51,0,0,0,8.508-8.3l7.644-306.83A8.51,8.51,0,0,0,622.911,293.146Z" transform="translate(-312.901 -208.705)" fill="#f24c5c"/>
      <path id="Path_10474" data-name="Path 10474" d="M532.536,293.145H475.641c-1.765,0-2.762,3.505-2.274,8l33.342,306.83c.532,4.892,2.6,9.022,4.526,9.022h61.139c1.811,0,2.806-3.683,2.239-8.3l-37.586-306.83C536.442,297.086,534.413,293.145,532.536,293.145Z" transform="translate(-305.815 -208.706)" fill="#d63444"/>
      <g id="Group_15914" data-name="Group 15914" transform="translate(173.106 97.993)" style="mix-blend-mode: overlay;isolation: isolate">
        <path id="Path_10475" data-name="Path 10475" d="M602.474,603.007H477.554v-1.038l.257-298.535H609.495a8.856,8.856,0,0,1,8.854,9.076l-7.024,281.864A8.806,8.806,0,0,1,602.474,603.007Zm-122.845-2.075H602.474a6.74,6.74,0,0,0,6.777-6.611l7.022-281.864a6.778,6.778,0,0,0-6.779-6.948H479.886Z" transform="translate(-477.554 -303.434)" fill="#eaddbe"/>
      </g>
      <path id="Path_10476" data-name="Path 10476" d="M485.995,293.146H439.714L434.193,617h51.521Z" transform="translate(-318.204 -208.705)" fill="#d63444"/>
      <path id="Path_10477" data-name="Path 10477" d="M438.406,293.146l-.09,5.3,40.015.409L481.177,617h3.229l.281-323.852Z" transform="translate(-316.896 -208.705)" fill="#b72036"/>
      <path id="Path_10478" data-name="Path 10478" d="M544.9,381.885s34.737,101.275,34.8,104.815-48.17,87.626-48.17,87.626l-1.139-.337,24.382-84.929L534.156,438.5Z" transform="translate(-287.688 -180.553)" fill="#6d3e4c"/>
      <path id="Path_10479" data-name="Path 10479" d="M541.108,400.57l-13.5,25.241L554.1,482.227,531.263,568.06l.225.067c9.094-20.751,33.25-82.951,33.2-85.9C564.649,479.793,551.374,430.722,541.108,400.57Z" transform="translate(-288.569 -174.625)" fill="#592e3c"/>
      <path id="Path_10480" data-name="Path 10480" d="M506.853,394.593C521.639,465.114,565.3,585.109,565.3,585.109h1.3l-17.421-153.13,8.648-8.195L552.9,382.3S503.739,379.74,506.853,394.593Z" transform="translate(-295.198 -180.475)" fill="#6d3e4c"/>
      <path id="Path_10481" data-name="Path 10481" d="M511.723,412.2c20.307-18.893,27.546-18.364,33.374-16.068a17.159,17.159,0,0,0,10.948.529l-2.826-11.478-40.79-2.118Z" transform="translate(-293.608 -180.177)" fill="#592e3c"/>
      <g id="Group_15915" data-name="Group 15915" transform="translate(211.514 205.205)">
        <path id="Path_10482" data-name="Path 10482" d="M514.585,384.825c-5.255,1.867-8.619,4.68-7.732,8.914C521.639,464.26,565.3,584.255,565.3,584.255h1.2C559.485,559.56,528.049,447.936,514.585,384.825Z" transform="translate(-506.712 -384.825)" fill="#592e3c"/>
      </g>
      <path id="Path_10483" data-name="Path 10483" d="M542.273,424.927l-12.051-4.635,12.184-.265L553,411.286Z" transform="translate(-287.739 -171.226)" fill="#592e3c"/>
      <path id="Path_10484" data-name="Path 10484" d="M529.956,305.823c22.859,18.725,31.372,54.23,31.372,54.23l44.016-1.946,2.189,10.458s-36.721,21.4-56.175,15.563S529.956,305.823,529.956,305.823Z" transform="translate(-287.824 -204.683)" fill="#ffb94a"/>
      <path id="Path_10485" data-name="Path 10485" d="M588.811,357.122c9.4,2.516,15.76.265,18.409-2.914s7.018-11.389,2.648-11.787-23.043,7.151-23.043,7.151Z" transform="translate(-269.782 -193.077)" fill="#ff9566"/>
      <path id="Path_10486" data-name="Path 10486" d="M564.916,368.022c-12.867-3.861-7.769-35.67-34.96-62.2,0,0,1.946,72.468,21.4,78.305s56.177-15.563,56.177-15.563L606.3,362.66C593.874,365.373,578.365,372.055,564.916,368.022Z" transform="translate(-287.824 -204.683)" fill="#ff9239"/>
      <path id="Path_10487" data-name="Path 10487" d="M595.179,357.878c0,.453-6.224-13.349-6.224-13.349l-12.184.868,1.412,9.05,3.709.151-4.415,2.563,4.768,7.543Z" transform="translate(-272.972 -192.404)" fill="#eaddbe"/>
      <path id="Path_10488" data-name="Path 10488" d="M511.713,299.916c-19.146,24.253-13.062,57.121-8.555,72.761s-2.791,47.192,9.215,61.141c0,0,17.341-18.98,29.489-17.393s15.094,7.752,18.275,5.032-.864-40.62,1.158-51.047-.991-38.578-14.49-54.9S511.713,299.916,511.713,299.916Z" transform="translate(-297.79 -206.559)" fill="#ffb94a"/>
      <path id="Path_10489" data-name="Path 10489" d="M509.193,309.207c-2.117,0-4.164,1.075-6.1,3.04-8.154,21.359-3.543,44.948.067,57.481,4.506,15.641-2.791,47.192,9.215,61.141,0,0,8.4-9.184,17.6-14.241a265.572,265.572,0,0,0,1.474-28.314C531.442,344.624,521.481,309.207,509.193,309.207Z" transform="translate(-297.788 -203.61)" fill="#ff6d2c"/>
      <path id="Path_10490" data-name="Path 10490" d="M521.154,303.681c-12.843-20.113-7.363-28.31-7.363-28.31s-6.967-10.554.1-20.5c0,0,.572-14.873,18.4-18.2,0,0,11.755-12.668,21.083-5.36,0,0,10.895-8.654,16.063,8.255s-1.321,16.79-1.321,16.79,10.207,21.906-6.275,27.263S521.154,303.681,521.154,303.681Z" transform="translate(-293.925 -229.042)" fill="#7a4939"/>
      <path id="Path_10491" data-name="Path 10491" d="M560.715,283.651s-12.63-.626-16.464-12.21c0,0-11.654-9.259-3.788-25.6,0,0-1.939-10.236,2.544-16.3-5.9,1.826-10.708,6.984-10.708,6.984-17.831,3.327-18.4,18.2-18.4,18.2-7.071,9.944-.1,20.5-.1,20.5s-5.48,8.2,7.363,28.31c0,0,23.2-14.085,39.636-19.7C560.74,283.714,560.715,283.651,560.715,283.651Z" transform="translate(-293.925 -228.886)" fill="#603428"/>
      <path id="Path_10492" data-name="Path 10492" d="M533.922,305l-25.381-5.089c19.941,9.484,39.022,26.984,39.022,26.984S540.987,309.311,533.922,305Z" transform="translate(-294.618 -206.558)" fill="#eaddbe"/>
      <path id="Path_10493" data-name="Path 10493" d="M508.541,310.867l18.482-45.476,16.05,21.643-6.809,32.344Z" transform="translate(-294.618 -217.51)" fill="#ffb882"/>
      <path id="Path_10494" data-name="Path 10494" d="M638.317,288.079l-40.126,74.9-65.417,5.837.243,1.216h89.249l45.476-74.658Z" transform="translate(-286.93 -210.313)" fill="#dbccad"/>
      <path id="Path_10495" data-name="Path 10495" d="M598.192,344.941l-65.417,5.837.243,1.216h89.249l-20.458-2.916Z" transform="translate(-286.93 -192.273)" fill="#d1bb93"/>
      <path id="Path_10496" data-name="Path 10496" d="M532.959,351h89.249l-20.458-2.916Z" transform="translate(-286.871 -191.277)" fill="#ba9e70"/>
      <path id="Path_10497" data-name="Path 10497" d="M630.216,289.68l-45.094,76.931,20.539,2.914,45.476-74.658Z" transform="translate(-270.323 -209.805)" fill="#efe3ca"/>
      <path id="Path_10498" data-name="Path 10498" d="M625.269,289.68l-24.555,79.845,45.476-74.658Z" transform="translate(-265.376 -209.805)" fill="#f9f0e1"/>
      <path id="Path_10499" data-name="Path 10499" d="M502.646,359.474c2.723,16.336-2.594,44.033,8.16,57.122,8.1-33.7,20.994-45.268,48.775-42.9-.227-7.6-.328-14.732.223-18.929C544.525,352.661,518.77,350.907,502.646,359.474Z" transform="translate(-296.488 -189.705)" fill="#ff6d2c"/>
      <path id="Path_10500" data-name="Path 10500" d="M529.081,362.328c-2.034-30.4-11.426-63.857-16.51-62.154-6.013,2.013-16.053,14.756-17.833,32.994-1.627,16.68,9.8,53.87,18.186,60.679s56.3-27.118,69.012-32.713l2.287-13.861C566.62,346.8,543.947,354.122,529.081,362.328Z" transform="translate(-299.046 -206.495)" fill="#ffb94a"/>
      <path id="Path_10501" data-name="Path 10501" d="M523.456,349.124c14.91-6.249,34.646-10.938,50.146-9.753l-2.416,11.166c.572-.285,1.112-.547,1.589-.756l2.287-13.861C558.8,335.483,538.22,341.7,523.456,349.124Z" transform="translate(-289.886 -195.142)" fill="#ff9239"/>
      <path id="Path_10502" data-name="Path 10502" d="M517.89,380.262c-8.39-6.809-18.152-48.008-16.525-64.687a56.379,56.379,0,0,1,1.49-8.426,53.154,53.154,0,0,0-8.112,23.788c-1.627,16.68,8.135,57.878,16.525,64.687S569.229,364.5,581.941,358.9l1.412-8.556C566.071,359.78,525.445,386.395,517.89,380.262Z" transform="translate(-299.052 -204.263)" fill="#ff9239"/>
      <path id="Path_10503" data-name="Path 10503" d="M569.086,540.566H551.26s-2.463-4.4,1.178-6.221C557.147,531.989,569.086,540.566,569.086,540.566Z" transform="translate(-281.323 -132.316)" fill="#f2e9ce"/>
      <path id="Path_10504" data-name="Path 10504" d="M542.591,543.427H532.558l-4.447-13.774s4.215-7.549,6.357-3.575c1.32,2.447.522,9.923.551,13A47.769,47.769,0,0,0,542.591,543.427Z" transform="translate(-288.409 -135.175)" fill="#f2e9ce"/>
      <path id="Path_10505" data-name="Path 10505" d="M395.711,323.464c-2.648,8.079,16.82,23.309,21.719,25.427l-14.568,3.443-14.7-21.586,1.1-12.493Z" transform="translate(-332.807 -200.739)" fill="#634c84"/>
      <path id="Path_10506" data-name="Path 10506" d="M424.406,352.776c-15.165-8.66-20.33-23.311-21.808-34.52L346.139,577.5c2.351,13.032,8.072,23.778,19.163,30.882Z" transform="translate(-346.139 -200.739)" fill="#503d70"/>
      <path id="Path_10507" data-name="Path 10507" d="M466.09,391.38H444.419l-2.585,172.591h24.124Z" transform="translate(-315.78 -177.541)" fill="#eaddbe" style="mix-blend-mode: overlay;isolation: isolate"/>
      <path id="Path_10508" data-name="Path 10508" d="M444.648,312.253h21.671l1.616-8H443.811Z" transform="translate(-315.153 -205.18)" fill="#eaddbe" style="mix-blend-mode: overlay;isolation: isolate"/>
      <path id="Path_10509" data-name="Path 10509" d="M444.648,325.524h21.671l1.616-8H443.811Z" transform="translate(-315.153 -200.97)" fill="#eaddbe" style="mix-blend-mode: overlay;isolation: isolate"/>
      <path id="Path_10510" data-name="Path 10510" d="M577.2,337.815c.4,4.182-.615,6.839-1.546,7.319s-4.1-1.063-4.629-2.395S576.846,334.125,577.2,337.815Z" transform="translate(-274.805 -194.862)" fill="#ff9566"/>
      <path id="Path_10511" data-name="Path 10511" d="M576.758,335.723c-.278,7.86-1.042,8.573-2.224,9.289s-4.866-.223-5.283-1.454.278-4.328,1.251-4.073a13.4,13.4,0,0,0,2.155.335Z" transform="translate(-275.397 -195.198)" fill="#ffb882"/>
      <path id="Path_10512" data-name="Path 10512" d="M577.585,334.481c-1.636-3.164-14.309-2.92-21.056,3.362l4.151,11.3c5.826-2.517,10.875-6.93,14.554-6.564S579.22,337.645,577.585,334.481Z" transform="translate(-279.394 -196.224)" fill="#ffb882"/>
      <path id="Path_10513" data-name="Path 10513" d="M573.245,337c-.278,7.86-1.043,8.573-2.225,9.289s-4.866-.221-5.282-1.454.278-4.328,1.25-4.072a13.492,13.492,0,0,0,2.155.333Z" transform="translate(-276.511 -194.794)" fill="#ffb882"/>
      <path id="Path_10514" data-name="Path 10514" d="M570.54,332.793c4.257.976,7.294,2.986,8.71,4.946a26.471,26.471,0,0,1,3.233,8.126c.058,1.149-2.38,2.592-2.9,1.085s-2.152-6.012-2.594-6.2-4.778-2.482-4.984-2.443S570.54,332.793,570.54,332.793Z" transform="translate(-274.949 -196.127)" fill="#ffb882"/>
      <path id="Path_10515" data-name="Path 10515" d="M567.129,349.8c0,.531-6.224-15.626-6.224-15.626l-12.185,1.016,1.412,10.595,3.709.177-4.415,3,4.768,8.828Z" transform="translate(-281.871 -195.689)" fill="#eaddbe"/>
      <path id="Path_10516" data-name="Path 10516" d="M507.166,301.763l3.532-5.827,27.811,10.33-1.678,5.3Z" transform="translate(-295.054 -207.82)" fill="#eaddbe"/>
      <path id="Path_10517" data-name="Path 10517" d="M540.07,316.449c-.187-.228-.378-.431-.568-.646l.913-2.885-1.008-.374,3.075-14.6c-4.614-8.65-11.033-17.28-18.24-22.975l-11.281,27.757-.356-.133-3.532,5.828.448.148c-2.52,1.222-5.554,4.094-8.371,8.245,15.983-.607,38.166,15.247,46.3,10.358a4.17,4.17,0,0,0,1.457-1.562A70.475,70.475,0,0,0,540.07,316.449Z" transform="translate(-296.962 -214.473)" fill="#c94343" opacity="0.6" style="mix-blend-mode: multiply;isolation: isolate"/>
      <path id="Path_10518" data-name="Path 10518" d="M527.182,257.41a131.585,131.585,0,0,0-9.534,47.832c.079,1.726,15.649,13.25,20.993,14.3,0,0,18.982-23.99,22.916-44.049s-1.149-25.011-7.163-26.247S530.95,248.163,527.182,257.41Z" transform="translate(-291.733 -222.806)" fill="#ffb882"/>
      <path id="Path_10519" data-name="Path 10519" d="M523.927,288.859c13.19-31.553,16.882-46.778,5.644-41.035s-10.456,36.447-10.456,36.447Z" transform="translate(-291.267 -223.462)" fill="#603428"/>
      <path id="Path_10520" data-name="Path 10520" d="M525.046,273.06c.327-7.461-8.048-14.158-9.572-6.121s3.524,19.989,5.531,17.554S524.936,275.564,525.046,273.06Z" transform="translate(-292.508 -218.176)" fill="#ffb882"/>
      <path id="Path_10521" data-name="Path 10521" d="M522.807,272.456c.205-4.693-5.06-8.9-6.017-3.848s2.216,12.569,3.478,11.037S522.738,274.03,522.807,272.456Z" transform="translate(-292.057 -217.217)" fill="#db5b3e"/>
      <path id="Path_10522" data-name="Path 10522" d="M521.641,274.386c.134-3.084-3.325-5.85-3.953-2.528s1.456,8.259,2.286,7.253A11.305,11.305,0,0,0,521.641,274.386Z" transform="translate(-291.753 -215.937)" fill="#ffb882"/>
      <g id="Group_15916" data-name="Group 15916" transform="translate(238.231 36.489)">
        <path id="Path_10523" data-name="Path 10523" d="M547.852,274.345c.88-2.035.649-4.035-.512-4.459s-2.808.887-3.684,2.926-.649,4.032.507,4.454S546.977,276.388,547.852,274.345Z" transform="translate(-521.877 -252.599)" fill="#4f3131"/>
        <path id="Path_10524" data-name="Path 10524" d="M541.822,268.331c1.756-.61,2.544,21.179,1.445,23.566-.543,1.188-7.9-2.879-7.9-2.879S541.5,268.435,541.822,268.331Z" transform="translate(-524.338 -253.071)" fill="#ffb882"/>
        <path id="Path_10525" data-name="Path 10525" d="M542.226,268.935c.809,4.645,1.59,20.305.656,22.285-.422.9-5.068-1.395-6.966-2.441-.126.441-.207.7-.207.7s7.73,4.717,8.245,3.529C544.946,290.709,543.642,270.115,542.226,268.935Z" transform="translate(-524.229 -252.875)" fill="#ea7b59"/>
        <path id="Path_10526" data-name="Path 10526" d="M538.534,270.431c1.041-1.973.98-3.986-.132-4.509s-2.865.645-3.906,2.609-.988,3.987.126,4.515S537.49,272.393,538.534,270.431Z" transform="translate(-524.851 -253.872)" fill="#4f3131"/>
        <path id="Path_10527" data-name="Path 10527" d="M549.281,258.9c-.607-1.748-10.973-2.361-13.522-2.1s-3.076,2.121-3.163,4.064,10.825,6.2,14.64,3.97C548.993,263.807,549.889,260.647,549.281,258.9Z" transform="translate(-525.217 -256.743)" fill="#7a4939"/>
        <path id="Path_10528" data-name="Path 10528" d="M546.764,266.94c-.406,3.466,5.4,5.14,6.771,3.716s2.545-3.023,1.931-4.46-4.327-6.094-5.779-5.145S546.946,265.346,546.764,266.94Z" transform="translate(-520.729 -255.417)" fill="#7a4939"/>
        <path id="Path_10529" data-name="Path 10529" d="M532.991,291.814c.184-.36-.692-1.24-1.955-1.967s-2.437-1.024-2.62-.664.693,1.24,1.956,1.965S532.808,292.174,532.991,291.814Z" transform="translate(-526.551 -246.5)" fill="#ea7b59"/>
        <path id="Path_10530" data-name="Path 10530" d="M526.994,283.635c.234-.408.387-.653.387-.653,3.255,4.674,5.571,7.425,13.03,11.144a7.784,7.784,0,0,0-.777.587C535.166,293.051,527.753,286.963,526.994,283.635Z" transform="translate(-526.994 -248.419)" fill="#ea7b59"/>
      </g>
      <path id="Path_10531" data-name="Path 10531" d="M604.1,352.01c3.62-3.8,6.622-11.567,5.738-14.3s-3.267-1.678-3.973-.53-1.5,9.711-1.942,11.742A4.556,4.556,0,0,0,604.1,352.01Z" transform="translate(-264.409 -195.117)" fill="#ff9566"/>
      <path id="Path_10532" data-name="Path 10532" d="M602.221,353.847c2.993-2.835,4.71-8.636,3.376-10.679a2.458,2.458,0,0,0-4.061-.4c-.516.858.1,7.251,0,8.768A3.056,3.056,0,0,0,602.221,353.847Z" transform="translate(-265.181 -193.245)" fill="#ff9566"/>
    </g>
    <g id="Group_15926" data-name="Group 15926" transform="translate(91.852 357.117)">
      <path id="Path_10533" data-name="Path 10533" d="M211.22,357.436h132.7L362.663,596.6H212.771Z" transform="translate(-53.983 -264.835)" fill="#b7bf47"/>
      <path id="Path_10534" data-name="Path 10534" d="M224.621,490.322,274.444,357.46H295.2l-8.06,23.935,7.327-1.465,6.594,117.72h22.958l12.212,46.16H346l8.792,29.308,3.664,23.2H211.188Z" transform="translate(-53.993 -264.827)" fill="#999b32"/>
      <g id="Group_15918" data-name="Group 15918" transform="translate(162.123 99.812)" opacity="0.58" style="mix-blend-mode: overlay;isolation: isolate">
        <path id="Path_10535" data-name="Path 10535" d="M214.929,364.01l118.472-1.1,13.126,222.967-130.2.7Zm116.753.8-114.92,1.063,1.407,218.748,126.379-.684Z" transform="translate(-214.929 -362.91)" fill="#fff9f1"/>
      </g>
      <path id="Path_10536" data-name="Path 10536" d="M311.376,357.436H344.9L359.539,596.6H324.352Z" transform="translate(-22.209 -264.835)" fill="#a5a53a"/>
      <path id="Path_10537" data-name="Path 10537" d="M321.826,385.261h16.4L348.32,554.053H331.1Z" transform="translate(-18.894 -256.007)" fill="#fff9f1" opacity="0.42" style="mix-blend-mode: overlay;isolation: isolate"/>
      <path id="Path_10538" data-name="Path 10538" d="M314.723,357.436,327.6,596.6h-4.982L309.646,357.436Z" transform="translate(-22.758 -264.835)" fill="#999b32"/>
      <path id="Path_10539" data-name="Path 10539" d="M243.855,440.154c-41.107,13.028-142.72,30.107-142.72,30.107l.578,1.737H259.777Z" transform="translate(-88.907 -238.593)" fill="#7c3552"/>
      <path id="Path_10540" data-name="Path 10540" d="M253.3,452.39l6.348,15.727H101.582l-.031-.093Z" transform="translate(-88.775 -234.711)" fill="#602540"/>
      <path id="Path_10541" data-name="Path 10541" d="M217.763,440.059c32.3-18.98,35.031-23.477,40.738-35.3s10.484-36.261-1.774-37.032-34.345,40.343-43.934,39.536S199.915,450.547,217.763,440.059Z" transform="translate(-55.963 -261.574)" fill="#eaddbe"/>
      <path id="Path_10542" data-name="Path 10542" d="M210.06,406.747c1.969,3.833,9.6,7.79,13.925,3.5,18.109-17.957,20.434-34.435,29.716-39.321,1.025-.539,8.731.736,9.209-.478,3.669,7.7-.1,23.792-4.409,32.712-5.708,11.825-8.437,16.322-40.738,35.3C201.746,447.872,202.755,413.35,210.06,406.747Z" transform="translate(-55.962 -260.708)" fill="#d8c5a0"/>
      <path id="Path_10543" data-name="Path 10543" d="M244.457,381.412c7.092-12.883,16.464-17.94,16.464-17.94s25.476-7.961,33.872,13.461S274.528,464.65,269.607,477.1s-10.422,16.5-38.213,14.474L207.944,466.1C234.288,444.965,239.808,389.853,244.457,381.412Z" transform="translate(-55.022 -263.379)" fill="#eaddbe"/>
      <g id="Group_15919" data-name="Group 15919" transform="translate(152.922 104.725)">
        <path id="Path_10544" data-name="Path 10544" d="M231.171,427.2c-1.913,14.35,14.322,29.012,20.367,28.545,9.669-.748,22.48-36.733,32.972-67a75.906,75.906,0,0,0,4.423-22.1,23.458,23.458,0,0,1,5.859,8.829c8.395,21.422-20.265,87.717-25.186,100.166s-10.422,16.5-38.213,14.474l-23.45-25.476C218.712,456,226,441.681,231.171,427.2Z" transform="translate(-207.944 -366.64)" fill="#d8c5a0"/>
      </g>
      <path id="Path_10545" data-name="Path 10545" d="M249.059,393.289l-44.293-4.342-44.293,6.948,46.289,2.62,42.578-3.582Z" transform="translate(-70.082 -254.838)" fill="#dbc8a2"/>
      <path id="Path_10546" data-name="Path 10546" d="M189.062,389.987l6.634-1.041,44.293,4.342.281,1.643-6.665.561Z" transform="translate(-61.012 -254.838)" fill="#d3bb92"/>
      <path id="Path_10547" data-name="Path 10547" d="M196.962,335.982l11.29,69.768L163.959,412.7l-14.475-62.241Z" transform="translate(-73.568 -271.641)" fill="#eaddbe"/>
      <path id="Path_10548" data-name="Path 10548" d="M196.962,335.982l-33,76.716-14.475-62.241Z" transform="translate(-73.568 -271.641)" fill="#f4e8ce"/>
      <path id="Path_10549" data-name="Path 10549" d="M182.708,337.114l3.714-1.132,11.29,69.768-4.46.7Z" transform="translate(-63.028 -271.641)" fill="#dbc8a2"/>
      <path id="Path_10550" data-name="Path 10550" d="M252.432,442.329c27.77-25.15,29.559-27.8,32.743-40.54s2.9-37.635-9.263-35.9-25.187,44.582-34.74,45.74S237.09,456.225,252.432,442.329Z" transform="translate(-45.984 -262.18)" fill="#eaddbe"/>
      <path id="Path_10551" data-name="Path 10551" d="M241.171,408.4c6.061-.735,13.52-18.248,21.268-31.4,4.465-7.577-10.575,30.73-20.129,31.888-7.5.909-5.737,27.865,2.791,32.689C235.6,438.623,233.348,409.344,241.171,408.4Z" transform="translate(-45.983 -258.944)" fill="#d8c5a0"/>
      <path id="Path_10552" data-name="Path 10552" d="M252.295,420.366c27.77-25.15,29.529-30.108,32.714-42.846.307-1.228.581-2.57.815-3.989,1.807,7.928,1.114,18.738-.653,25.807-3.184,12.738-4.942,17.695-32.712,42.845-13.14,11.9-19.051-19.917-14.48-30.033C240.4,420.678,245.326,426.677,252.295,420.366Z" transform="translate(-45.98 -259.729)" fill="#d8c5a0"/>
      <path id="Path_10553" data-name="Path 10553" d="M222.846,400.365c-16.935-6.535-51.984-5.435-51.984-5.435l4.4,6.105s40.62,34.082,50.4,30.364C235.843,427.529,229.723,403.018,222.846,400.365Z" transform="translate(-66.786 -252.962)" fill="#ff9566"/>
      <path id="Path_10554" data-name="Path 10554" d="M258.235,406.464c-9.192-15.731-29.774-29.845-29.774-29.845l-9.309,6.4s21.43,57.221,31.049,59.333S261.886,412.713,258.235,406.464Z" transform="translate(-51.467 -258.749)" fill="#ffb882"/>
      <path id="Path_10555" data-name="Path 10555" d="M250.363,421.431c4.61,1.012,7.481-5.758,8.823-13.765,2.181,9.79-.373,35.031-8.985,33.142-9.619-2.112-31.049-59.333-31.049-59.333S243.977,420.031,250.363,421.431Z" transform="translate(-51.467 -257.209)" fill="#ff9566"/>
      <g id="Group_15920" data-name="Group 15920" transform="translate(162.827)">
        <path id="Path_10556" data-name="Path 10556" d="M216.1,303.126s-.155.865-.323,2.291A8.063,8.063,0,0,1,216.1,303.126Z" transform="translate(-215.365 -282.065)" fill="#ce5230"/>
        <path id="Path_10557" data-name="Path 10557" d="M215.875,310.489a9.114,9.114,0,0,0,.973,4.222c1.737,3.475,11.073,4.778,6.514-10.421s8.467-17.153,8.467-17.153-8.25,7.166,1.3,11.073,4.994-8.467,14.765-9.987,12.81,13.245,12.81,13.245,3.908-9.119,17.587-3.908,4.776,16.068,4.776,16.068,12.81,2.171,13.678,19.107-8.467,10.638-8.467,10.638c1.52,10.422-7.382,15.2-7.382,15.2s-2.388,4.343-3.908,15.416l-38.865-35.608C213.565,345.212,214.92,318.6,215.875,310.489Z" transform="translate(-215.464 -287.137)" fill="#7a4939"/>
        <path id="Path_10558" data-name="Path 10558" d="M243.269,330.819c17.3-8.141,33.39-18.169,30.02-35.265-.1-.527-.263-1.029-.394-1.543a25.036,25.036,0,0,1,5.009,1.367c13.678,5.211,4.776,16.068,4.776,16.068s12.81,2.171,13.68,19.105-8.469,10.639-8.469,10.639c1.52,10.422-7.382,15.2-7.382,15.2s-2.388,4.343-3.908,15.416L237.737,336.2c-12.879,3.583-18.626-2.034-21.047-9.352C221.9,334.237,226.662,338.634,243.269,330.819Z" transform="translate(-215.075 -284.956)" fill="#603428"/>
      </g>
      <path id="Path_10559" data-name="Path 10559" d="M263.695,337.081l8.685,35.39c-8.844,1.266-16.774,6.017-23.883,13.9l-4.126-38Z" transform="translate(-43.466 -271.292)" fill="#ffb882"/>
      <path id="Path_10560" data-name="Path 10560" d="M196.851,398.195l10.422-4.633c22.58,6.08,59.056,79.9,59.056,79.9s-9.264,13.026-19.685,13.026H220.3l-13.606-63.4-28.081,61.083-2.316-.868S191.35,410.932,196.851,398.195Z" transform="translate(-65.062 -253.374)" fill="#7c3552"/>
      <path id="Path_10561" data-name="Path 10561" d="M207.748,400.166s14.081,8.8,25.833,16.4c17.023,23.514,32.486,54.8,32.486,54.8s-9.264,13.026-19.685,13.026H220.036L206.43,421l-28.081,61.083-1.222-.458Z" transform="translate(-64.799 -251.279)" fill="#602540"/>
      <g id="Group_15923" data-name="Group 15923" transform="translate(22.36 232.332)">
        <path id="Path_10562" data-name="Path 10562" d="M326.939,465.124H213.264c-20.117,0-25.9,42.8-5.783,42.8H321.156C310.887,502.164,312.307,471.914,326.939,465.124Z" transform="translate(-81.496 -463.004)" fill="#ceb995"/>
        <path id="Path_10563" data-name="Path 10563" d="M242.284,463.522H127.274c-22.846-.686-25.366,46.338-2.52,47.026h115.01C220.176,509.959,222.7,462.933,242.284,463.522Z" transform="translate(-108.827 -463.514)" fill="#ffb94a"/>
        <g id="Group_15921" data-name="Group 15921" transform="translate(18.474 0.009)">
          <path id="Path_10564" data-name="Path 10564" d="M350.372,463.521H125.264l-.943,4.456H349.428a3.1,3.1,0,0,0,3-2.227h0A1.874,1.874,0,0,0,350.372,463.521Z" transform="translate(-122.386 -463.521)" fill="#ffb94a"/>
          <path id="Path_10565" data-name="Path 10565" d="M348.574,496.282H123.862l-1.01,3.869H347.564a3.137,3.137,0,0,0,3.031-1.935h0C350.874,497.147,349.969,496.282,348.574,496.282Z" transform="translate(-122.852 -453.128)" fill="#ffb94a"/>
        </g>
        <g id="Group_15922" data-name="Group 15922" transform="translate(125.798 0.007)">
          <path id="Path_10566" data-name="Path 10566" d="M325.72,463.52H205.615l-.5,4.456H325.217c.744,0,1.46-1,1.6-2.227h0C326.955,464.517,326.465,463.52,325.72,463.52Z" transform="translate(-204.079 -463.52)" fill="#ef7335"/>
          <path id="Path_10567" data-name="Path 10567" d="M324.761,496.281H204.867l-.539,3.87H324.222c.744,0,1.467-.867,1.616-1.935h0C325.988,497.148,325.505,496.281,324.761,496.281Z" transform="translate(-204.328 -453.127)" fill="#ef7335"/>
        </g>
        <path id="Path_10568" data-name="Path 10568" d="M246.24,466.182H131.23c-22.848-.585-25.368,39.463-2.52,40.049H243.72C215.9,504.431,218.417,464.383,246.24,466.182Z" transform="translate(-107.572 -462.687)" fill="#ef7335"/>
        <path id="Path_10569" data-name="Path 10569" d="M240.186,467.292l-101.583.5c-20.442-.548-22.7,36.871-2.255,37.418h102.91C221.731,504.741,222.659,466.823,240.186,467.292Z" transform="translate(-104.617 -462.317)" fill="#ddcba6"/>
        <path id="Path_10570" data-name="Path 10570" d="M223.455,471.128H142.633c-16.055-.414-17.826,27.9-1.77,28.312h80.821C207.92,499.085,209.69,470.774,223.455,471.128Z" transform="translate(-102.215 -461.1)" fill="#eaddbe"/>
      </g>
      <g id="Group_15925" data-name="Group 15925" transform="translate(5.569 278.598)">
        <path id="Path_10571" data-name="Path 10571" d="M266.031,498.637H103.69c-10.06,0-10.189,53.169-.129,53.169H265.9C252.893,551.806,253.022,498.637,266.031,498.637Z" transform="translate(-96.08 -498.637)" fill="#5e85bc"/>
        <path id="Path_10572" data-name="Path 10572" d="M345.455,503.386H229c-20.608,0-20.706,40.659-.1,40.659H345.356C334.052,538.572,331.389,509.836,345.455,503.386Z" transform="translate(-58.83 -497.13)" fill="#ddcba6"/>
        <path id="Path_10573" data-name="Path 10573" d="M248.876,534.01c-15.937,0-15.861-24.485.076-24.485h81.621c-3.161,7.28-2.674,17.3.469,24.485Z" transform="translate(-51.386 -495.183)" fill="#eaddbe"/>
        <path id="Path_10574" data-name="Path 10574" d="M345.135,498.637H210.884l-.022,9.383h134.25c1.724,0,3.127-2.1,3.134-4.692h0C348.252,500.738,346.858,498.637,345.135,498.637Z" transform="translate(-59.666 -498.637)" fill="#4b6f9b"/>
        <path id="Path_10575" data-name="Path 10575" d="M345.054,531.878H210.8l-.022,9.383H345.032c1.724,0,3.127-2.1,3.134-4.692h0C348.171,533.979,346.779,531.878,345.054,531.878Z" transform="translate(-59.692 -488.091)" fill="#4b6f9b"/>
        <path id="Path_10576" data-name="Path 10576" d="M231.771,551.806H209.4c-7.707-10.034-7.627-43.136.129-53.169H231.9C218.891,498.637,218.762,551.806,231.771,551.806Z" transform="translate(-61.95 -498.637)" fill="#4b6f9b"/>
        <g id="Group_15924" data-name="Group 15924" transform="translate(14.355 4.9)" style="mix-blend-mode: overlay;isolation: isolate">
          <path id="Path_10577" data-name="Path 10577" d="M106.978,524.239c0-10.094,1.651-21.882,6.3-21.882H229.025v1.94c-3.492,0-6.127,8.554-6.127,19.9,0,11.169,2.595,19.591,6.036,19.591v1.939H113.188C108.6,545.726,106.978,534.153,106.978,524.239Zm114.17-.043c0-8.11,1.355-16.275,4.3-19.9H113.278c-2.508,0-4.55,8.947-4.55,19.942,0,12.236,2.267,19.548,4.459,19.548H225.38C222.482,540.2,221.148,532.17,221.148,524.2Z" transform="translate(-106.978 -502.357)" fill="#ddcba6"/>
        </g>
      </g>
      <path id="Path_10578" data-name="Path 10578" d="M161.931,464.865h22.144s3.093-3.582-.815-5.536S161.931,464.865,161.931,464.865Z" transform="translate(-69.62 -232.613)" fill="#f4e6c9"/>
      <path id="Path_10579" data-name="Path 10579" d="M91.852,450.757,102.258,470.3s4.616,1.047,4.5-3.319S91.852,450.757,91.852,450.757Z" transform="translate(-91.852 -235.229)" fill="#f4e6c9"/>
      <path id="Path_10580" data-name="Path 10580" d="M250.219,402.269c-8.457-1.842-11.309-10.708-11.426-21.8a17.811,17.811,0,0,1,4.184-2.458,44.356,44.356,0,0,1,5.829-5.1l-2.665-24.538,19.324-11.29,8.685,35.39c-.057.008-.111.024-.167.033a21.135,21.135,0,0,1,4.18,2.657c2.609.71,4.468,2.977,5.737,6.111C270.6,383.9,262.356,404.913,250.219,402.269Z" transform="translate(-45.236 -271.292)" fill="#c94343" opacity="0.6" style="mix-blend-mode: multiply;isolation: isolate"/>
      <path id="Path_10581" data-name="Path 10581" d="M264.527,317.185c6.5,25.984,2.388,50.806,2.388,50.806s-17.587,10.639-28.443,10.855c0,0-9.987-41.47-6.079-57.971S263.224,311.974,264.527,317.185Z" transform="translate(-47.554 -279.622)" fill="#ffb882"/>
      <path id="Path_10582" data-name="Path 10582" d="M255.144,351.687c-1.96-23.223-3.42-38.283,3.682-34.836s4.666,29.575,4.666,29.575Z" transform="translate(-40.559 -277.866)" fill="#603428"/>
      <path id="Path_10583" data-name="Path 10583" d="M233.13,334.87c-.19-1.608.267-2.984,1.022-3.073s1.517,1.142,1.707,2.75-.269,2.984-1.022,3.072S233.32,336.477,233.13,334.87Z" transform="translate(-47.046 -272.97)" fill="#633d37"/>
      <path id="Path_10584" data-name="Path 10584" d="M242.261,333.572c-.188-1.608.269-2.984,1.022-3.073s1.517,1.142,1.707,2.75-.267,2.984-1.022,3.072S242.451,335.179,242.261,333.572Z" transform="translate(-44.149 -273.382)" fill="#633d37"/>
      <path id="Path_10585" data-name="Path 10585" d="M226.185,336.514l3.288,11.894,26.16-2.706.572-10.682,19.155-2.777,4.575,5.736,3.86-3.42-6-4.362Z" transform="translate(-49.235 -273.476)" fill="#eaddbe"/>
      <path id="Path_10586" data-name="Path 10586" d="M235.34,335.272l-7.9,1.058,2.524,8.874,5.78-.814Z" transform="translate(-48.836 -271.866)" fill="#ffb882"/>
      <path id="Path_10587" data-name="Path 10587" d="M235.34,335.133l-7.9,1.058,2.524,8.874,5.78-.814Z" transform="translate(-48.836 -271.91)" fill="#ffb882"/>
      <path id="Path_10588" data-name="Path 10588" d="M235.458,344.116l-2,.282-5.84-8.405,2.477-.332Z" transform="translate(-48.781 -271.743)" fill="#ffc69f"/>
      <path id="Path_10589" data-name="Path 10589" d="M258.538,334.578c2.268-6.2,10.929-4.838,9.4-.232s-7.968,13.076-9.651,11.716S257.917,336.275,258.538,334.578Z" transform="translate(-39.312 -273.412)" fill="#ffb882"/>
      <path id="Path_10590" data-name="Path 10590" d="M235.524,336.261c-.257-.161-4.069,15.816-4.3,17.209s9.021-1.392,9.021-1.392S236.236,336.7,235.524,336.261Z" transform="translate(-47.637 -271.553)" fill="#ffb882"/>
      <path id="Path_10591" data-name="Path 10591" d="M259.72,335.4c1.3-3.546,6.256-2.769,5.382-.132s-4.562,7.483-5.525,6.7S259.364,336.372,259.72,335.4Z" transform="translate(-38.792 -272.584)" fill="#db5b3e"/>
      <path id="Path_10592" data-name="Path 10592" d="M259.431,337.594c.826-2.255,3.978-1.761,3.422-.084s-2.9,4.759-3.513,4.264S259.206,338.212,259.431,337.594Z" transform="translate(-38.812 -271.612)" fill="#ffb882"/>
      <path id="Path_10593" data-name="Path 10593" d="M235.539,335.456l2.687,9.606,12.456-1.628.733-9.769Z" transform="translate(-46.268 -272.376)" fill="#ffb882"/>
      <path id="Path_10594" data-name="Path 10594" d="M236.743,335.034l5.316-.6,8,8.789-5.238.685Z" transform="translate(-45.886 -272.132)" fill="#ffc69f"/>
      <path id="Path_10595" data-name="Path 10595" d="M235.524,336.261a5.521,5.521,0,0,1,.706,1.641c-1.208,4.6-3.289,13.408-3.455,14.427s4.641-.174,7.3-.9c.108.412.171.651.171.651s-9.247,2.783-9.021,1.392S235.267,336.1,235.524,336.261Z" transform="translate(-47.637 -271.553)" fill="#ff9566"/>
      <path id="Path_10596" data-name="Path 10596" d="M232.2,338.569c-.834.082-1.656-1.067-2.089-2.733l3.622-.486C233.645,337.137,233.051,338.488,232.2,338.569Z" transform="translate(-47.991 -271.842)" fill="#633d37"/>
      <path id="Path_10597" data-name="Path 10597" d="M243.283,338.157c-.989.072-1.928-1.506-2.252-3.643l3.937-.445C245,336.3,244.3,338.082,243.283,338.157Z" transform="translate(-44.526 -272.248)" fill="#633d37"/>
      <path id="Path_10598" data-name="Path 10598" d="M254.809,330.712a82.353,82.353,0,0,1-16.721-1.2l-.665-7.016s15.241,2.636,16.572,3.937S254.809,330.712,254.809,330.712Z" transform="translate(-45.67 -275.918)" fill="#7a4939"/>
      <path id="Path_10599" data-name="Path 10599" d="M228.881,332.5a29.087,29.087,0,0,0,9.467-2.791l-.635-7.005s-8.405,4.073-8.984,5.489S228.881,332.5,228.881,332.5Z" transform="translate(-48.499 -275.853)" fill="#7a4939"/>
      <path id="Path_10600" data-name="Path 10600" d="M236.914,351.311l13.923-3.727s.6,8.525-6.364,9.87S236.914,351.311,236.914,351.311Z" transform="translate(-45.832 -267.96)" fill="#472922"/>
      <path id="Path_10601" data-name="Path 10601" d="M238.368,353.645a8.04,8.04,0,0,1-.7-2.5l11.946-3.2a11.7,11.7,0,0,1-.228,2.754Z" transform="translate(-45.593 -267.847)" fill="#fff6e3"/>
      <path id="Path_10602" data-name="Path 10602" d="M169.47,372.013c1.743-.288,2.741-3.03,2.23-6.123a8.311,8.311,0,0,0-1.6-3.828,6.827,6.827,0,0,1,2.671,4.767c.511,3.093-.487,5.834-2.23,6.121a2.759,2.759,0,0,1-2.483-1.25A2.114,2.114,0,0,0,169.47,372.013Z" transform="translate(-67.676 -263.367)" fill="#dbc8a2"/>
      <path id="Path_10603" data-name="Path 10603" d="M168.686,359.617c1.682-.278,3.421,1.287,4.554,3.77-1.072-1.6-2.421-2.523-3.74-2.305-2.37.393-3.7,4.253-2.981,8.624a13.591,13.591,0,0,0,1.045,3.435,12.523,12.523,0,0,1-1.859-4.9C164.982,363.869,166.317,360.008,168.686,359.617Z" transform="translate(-68.485 -264.153)" fill="#d3bb92"/>
      <path id="Path_10604" data-name="Path 10604" d="M204.424,378.432c-.468,3.861.721,6.3,1.813,6.736s4.8-1.014,5.42-2.246S204.838,375.027,204.424,378.432Z" transform="translate(-56.172 -258.478)" fill="#ff9566"/>
      <path id="Path_10605" data-name="Path 10605" d="M205.317,376.495c.325,7.246,1.221,7.9,2.605,8.549s5.7-.245,6.187-1.384-.325-3.989-1.466-3.745a19.869,19.869,0,0,1-2.524.325Z" transform="translate(-55.856 -258.789)" fill="#ffb882"/>
      <path id="Path_10606" data-name="Path 10606" d="M208.4,375.343c1.915-2.931,16.759-2.808,24.66,2.931l-8.06,8.06c-2.633-4.274-9.537-3.908-13.847-3.542S206.486,378.274,208.4,375.343Z" transform="translate(-55.228 -259.753)" fill="#ffb882"/>
      <path id="Path_10607" data-name="Path 10607" d="M207.666,377.561c.325,7.246,1.221,7.9,2.6,8.549s5.7-.245,6.187-1.384-.325-3.989-1.465-3.745a19.612,19.612,0,0,1-2.524.325Z" transform="translate(-55.11 -258.45)" fill="#ffb882"/>
      <path id="Path_10608" data-name="Path 10608" d="M213.816,373.758c-4.986.934-8.542,2.812-10.2,4.631a21.783,21.783,0,0,0-3.786,7.52c-.07,1.059,2.786,2.37,3.4.977s2.52-5.563,3.038-5.735,5.6-2.328,5.837-2.293S213.816,373.758,213.816,373.758Z" transform="translate(-57.597 -259.657)" fill="#ffb882"/>
      <path id="Path_10609" data-name="Path 10609" d="M182.578,404.736c-11.112-4.762-17.1-2.686-19.782-10.379l16.853.651Z" transform="translate(-69.345 -253.122)" fill="#ff9566"/>
      <path id="Path_10610" data-name="Path 10610" d="M170.037,399.449c-3.745-2.117-4.641-5.129-4.641-7.083s-3.011-2.442-3.093-.569a10.153,10.153,0,0,0,1.465,5.373C164.582,398.392,170.037,399.449,170.037,399.449Z" transform="translate(-69.504 -254.307)" fill="#ff9566"/>
      <path id="Path_10611" data-name="Path 10611" d="M173.251,399.7c-3.745-2.117-4.641-5.128-4.641-7.083s-3.013-2.442-3.093-.569a10.153,10.153,0,0,0,1.465,5.373C167.8,398.639,173.251,399.7,173.251,399.7Z" transform="translate(-68.484 -254.229)" fill="#ff9566"/>
      <path id="Path_10612" data-name="Path 10612" d="M176.65,400.005c-3.745-2.117-4.641-5.128-4.641-7.083s-3.011-2.442-3.093-.569a10.153,10.153,0,0,0,1.465,5.373C171.2,398.948,176.65,400.005,176.65,400.005Z" transform="translate(-67.406 -254.131)" fill="#ff9566"/>
    </g>
  </g>
</svg>
